# xmcd
#
# Track frame offsets:
#	150
#	13375
#	31515
#	43241
#	56449
#	68284
#	86026
#	101427
#	113305
#	130203
#
# Disc length: 1930 seconds
#
# Revision: 0
# Processed by: cddbd v1.5.2PL0 Copyright (c) Steve Scherf et al.
# Submitted via: dBpowerAMP V4.0
#
DISCID=7207880a
DTITLE=Conway Twitty - Southern Comfort
DYEAR=2007
DGENRE=Country
TTITLE0=Slow Hand
TTITLE1=The Clown
TTITLE2=The Boy Next Door
TTITLE3=Love And Only Love
TTITLE4=When Love Was Something Else
TTITLE5=She Only Meant To Use Him
TTITLE6=It Turns Me Inside Out
TTITLE7=Southern Comfort
TTITLE8=Something Strange Got Into Her Last Night
TTITLE9=I Was The First
EXTD=
EXTT0=
EXTT1=
EXTT2=
EXTT3=
EXTT4=
EXTT5=
EXTT6=
EXTT7=
EXTT8=
EXTT9=
PLAYORDER=
